<svg xmlns="http://www.w3.org/2000/svg" viewBox="0 0 450 140" width="450" height="140">
  <!-- Dr. Islam Elsagher Dental Logo - Production Version -->
  
  <!-- Dental Symbol -->
  <g id="logo-symbol" transform="translate(60, 70)">
    <!-- Tooth shape -->
    <path d="M0,-45 C-10,-45 -18,-40 -22,-32 C-26,-24 -28,-15 -28,-5 C-28,5 -26,15 -22,25 C-18,35 -12,43 -6,48 C-3,50 0,52 0,52 C0,52 3,50 6,48 C12,43 18,35 22,25 C26,15 28,5 28,-5 C28,-15 26,-24 22,-32 C18,-40 10,-45 0,-45Z" 
          fill="#BEB093" stroke="#BEB093" stroke-width="0.5"/>
    
    <!-- Crescent moon -->
    <path d="M-12,-35 C-22,-35 -30,-26 -30,-15 C-30,-4 -22,5 -12,5 C-17,2 -20,-5 -20,-15 C-20,-25 -17,-32 -12,-35Z" 
          fill="#777669"/>
    
    <!-- Center line -->
    <line x1="0" y1="-40" x2="0" y2="48" stroke="#777669" stroke-width="1.5" opacity="0.5"/>
  </g>
  
  <!-- Text Group -->
  <g id="logo-text">
    <!-- Using web-safe script fonts -->
    <text x="120" y="70" font-family="Brush Script MT, Lucida Handwriting, cursive" font-size="42" fill="#777669">Dr. Islam</text>
    <text x="260" y="70" font-family="Brush Script MT, Lucida Handwriting, cursive" font-size="44" fill="#777669" font-weight="500">Elsagher</text>
    
    <!-- Arabic text -->
    <text x="225" y="105" font-family="Arial, sans-serif" font-size="16" fill="#777669" text-anchor="middle" direction="rtl">
      دكتــور . اسـلام الصغـيـر
    </text>
  </g>
</svg>